<?xml version="1.0" encoding="utf-8"?>
<!-- Generator: Adobe Illustrator 25.3.1, SVG Export Plug-In . SVG Version: 6.00 Build 0)  -->
<svg version="1.1" id="Layer_1" xmlns="http://www.w3.org/2000/svg" xmlns:xlink="http://www.w3.org/1999/xlink" x="0px" y="0px"
	 viewBox="0 0 236 236" style="enable-background:new 0 0 236 236;" xml:space="preserve">
<style type="text/css">
	.st0{fill:#4592FF;}
</style>
<path id="XMLID_110_" class="st0" d="M219.2,175L219.2,175c-2,3.5-4,6.9-6.4,9.9l0,0c-5,5.9-10.9,9.9-18.8,12.4L118.7,221
	c-3.5,1-6.9,0.5-9.9-1.5c-3-2-5-5-5-8.4L90,62.6l3,0.5l6.9,0.5l13.4,1c4,0.5,7.9,3.5,7.9,6.9l13.9,108.9l28.7-6.4L146.9,66.5
	l3.5,0.5l5,0.5l9.4,1c3,0.5,6.4,3,6.4,6.4L188,169l21.3-4.5l-18.8-94.1c-2.5-11.4-12.9-21.8-24.8-23.3L65.2,32.9
	c-3.5-0.5-6.9,1-9.4,3c-2.5,2.5-4,5.9-4,9.4l9.4,168.3l0.5,9.4l0.5,4c-29.2-6.9-51-30.2-51-61.4l-1-108.9c0-13.4,5-24.3,13.9-32.2
	c7.9-7.4,18.3-12.4,30.2-14.4c9.4-1.5,19.8-1.5,30.2,0.5L163.3,26c22.3,4,42.1,24.3,47,46l14.4,64.9
	C227.1,149.7,225.2,163.6,219.2,175z"/>
</svg>
